<mxfile host="app.diagrams.net" agent="Mozilla/5.0 (Windows NT 10.0; Win64; x64) AppleWebKit/537.36 (KHTML, like Gecko) Chrome/134.0.0.0 Safari/537.36" version="26.1.0">
  <diagram name="Strona-1" id="zP0relGateYTujE7X2jT">
    <mxGraphModel dx="1050" dy="530" grid="1" gridSize="10" guides="1" tooltips="1" connect="1" arrows="1" fold="1" page="1" pageScale="1" pageWidth="827" pageHeight="1169" math="0" shadow="0">
      <root>
        <mxCell id="0" />
        <mxCell id="1" parent="0" />
        <mxCell id="BBZVALFFSFmiyquu_aXk-1" value="Klient" style="shape=umlActor;verticalLabelPosition=bottom;verticalAlign=top;html=1;outlineConnect=0;" vertex="1" parent="1">
          <mxGeometry x="70" y="90" width="30" height="60" as="geometry" />
        </mxCell>
        <mxCell id="BBZVALFFSFmiyquu_aXk-2" value="Sprzedawca" style="shape=umlActor;verticalLabelPosition=bottom;verticalAlign=top;html=1;outlineConnect=0;" vertex="1" parent="1">
          <mxGeometry x="70" y="320" width="30" height="60" as="geometry" />
        </mxCell>
        <mxCell id="BBZVALFFSFmiyquu_aXk-3" value="Oferta sprzedaży" style="shape=umlBoundary;whiteSpace=wrap;html=1;" vertex="1" parent="1">
          <mxGeometry x="170" y="30" width="100" height="80" as="geometry" />
        </mxCell>
        <mxCell id="BBZVALFFSFmiyquu_aXk-5" value="System sprzedaży" style="shape=umlBoundary;whiteSpace=wrap;html=1;" vertex="1" parent="1">
          <mxGeometry x="170" y="320" width="100" height="80" as="geometry" />
        </mxCell>
        <mxCell id="BBZVALFFSFmiyquu_aXk-7" value="Baza danych" style="ellipse;shape=umlEntity;whiteSpace=wrap;html=1;" vertex="1" parent="1">
          <mxGeometry x="640" y="170" width="80" height="80" as="geometry" />
        </mxCell>
        <mxCell id="BBZVALFFSFmiyquu_aXk-10" value="Wybór produktu" style="ellipse;shape=umlControl;whiteSpace=wrap;html=1;" vertex="1" parent="1">
          <mxGeometry x="370" y="30" width="70" height="80" as="geometry" />
        </mxCell>
        <mxCell id="BBZVALFFSFmiyquu_aXk-11" value="Płatność" style="ellipse;shape=umlControl;whiteSpace=wrap;html=1;" vertex="1" parent="1">
          <mxGeometry x="370" y="170" width="70" height="80" as="geometry" />
        </mxCell>
        <mxCell id="BBZVALFFSFmiyquu_aXk-12" value="Przygotowanie produktu" style="ellipse;shape=umlControl;whiteSpace=wrap;html=1;" vertex="1" parent="1">
          <mxGeometry x="370" y="310" width="70" height="80" as="geometry" />
        </mxCell>
        <mxCell id="BBZVALFFSFmiyquu_aXk-13" value="Produkt" style="shape=umlBoundary;whiteSpace=wrap;html=1;" vertex="1" parent="1">
          <mxGeometry x="170" y="170" width="100" height="80" as="geometry" />
        </mxCell>
        <mxCell id="BBZVALFFSFmiyquu_aXk-15" value="" style="endArrow=none;html=1;rounded=0;exitX=0.5;exitY=0.5;exitDx=0;exitDy=0;exitPerimeter=0;" edge="1" parent="1" source="BBZVALFFSFmiyquu_aXk-1">
          <mxGeometry width="50" height="50" relative="1" as="geometry">
            <mxPoint x="390" y="340" as="sourcePoint" />
            <mxPoint x="170" y="70" as="targetPoint" />
          </mxGeometry>
        </mxCell>
        <mxCell id="BBZVALFFSFmiyquu_aXk-16" value="" style="endArrow=none;html=1;rounded=0;entryX=1.016;entryY=0.51;entryDx=0;entryDy=0;entryPerimeter=0;exitX=0.029;exitY=0.5;exitDx=0;exitDy=0;exitPerimeter=0;" edge="1" parent="1" source="BBZVALFFSFmiyquu_aXk-10" target="BBZVALFFSFmiyquu_aXk-3">
          <mxGeometry width="50" height="50" relative="1" as="geometry">
            <mxPoint x="350" y="71" as="sourcePoint" />
            <mxPoint x="440" y="290" as="targetPoint" />
          </mxGeometry>
        </mxCell>
        <mxCell id="BBZVALFFSFmiyquu_aXk-17" value="" style="endArrow=none;html=1;rounded=0;entryX=0.52;entryY=1.02;entryDx=0;entryDy=0;entryPerimeter=0;exitX=0.509;exitY=0.23;exitDx=0;exitDy=0;exitPerimeter=0;" edge="1" parent="1" source="BBZVALFFSFmiyquu_aXk-11" target="BBZVALFFSFmiyquu_aXk-10">
          <mxGeometry width="50" height="50" relative="1" as="geometry">
            <mxPoint x="406" y="170" as="sourcePoint" />
            <mxPoint x="450" y="290" as="targetPoint" />
          </mxGeometry>
        </mxCell>
        <mxCell id="BBZVALFFSFmiyquu_aXk-18" value="" style="endArrow=classic;html=1;rounded=0;exitX=0.914;exitY=0.555;exitDx=0;exitDy=0;exitPerimeter=0;" edge="1" parent="1" source="BBZVALFFSFmiyquu_aXk-19" target="BBZVALFFSFmiyquu_aXk-7">
          <mxGeometry width="50" height="50" relative="1" as="geometry">
            <mxPoint x="590" y="70" as="sourcePoint" />
            <mxPoint x="560" y="240" as="targetPoint" />
          </mxGeometry>
        </mxCell>
        <mxCell id="BBZVALFFSFmiyquu_aXk-19" value="Rejestracja&lt;div&gt;płatności w systemie&lt;/div&gt;" style="ellipse;shape=umlControl;whiteSpace=wrap;html=1;" vertex="1" parent="1">
          <mxGeometry x="490" y="170" width="70" height="80" as="geometry" />
        </mxCell>
        <mxCell id="BBZVALFFSFmiyquu_aXk-20" value="" style="endArrow=classic;html=1;rounded=0;entryX=0.023;entryY=0.56;entryDx=0;entryDy=0;entryPerimeter=0;exitX=0.983;exitY=0.61;exitDx=0;exitDy=0;exitPerimeter=0;" edge="1" parent="1" source="BBZVALFFSFmiyquu_aXk-11" target="BBZVALFFSFmiyquu_aXk-19">
          <mxGeometry width="50" height="50" relative="1" as="geometry">
            <mxPoint x="390" y="240" as="sourcePoint" />
            <mxPoint x="440" y="190" as="targetPoint" />
          </mxGeometry>
        </mxCell>
        <mxCell id="BBZVALFFSFmiyquu_aXk-23" value="" style="endArrow=classic;html=1;rounded=0;entryX=0.469;entryY=0.17;entryDx=0;entryDy=0;entryPerimeter=0;exitX=0.48;exitY=1.02;exitDx=0;exitDy=0;exitPerimeter=0;" edge="1" parent="1" source="BBZVALFFSFmiyquu_aXk-11" target="BBZVALFFSFmiyquu_aXk-12">
          <mxGeometry width="50" height="50" relative="1" as="geometry">
            <mxPoint x="390" y="240" as="sourcePoint" />
            <mxPoint x="440" y="190" as="targetPoint" />
          </mxGeometry>
        </mxCell>
        <mxCell id="BBZVALFFSFmiyquu_aXk-25" value="" style="endArrow=classic;html=1;rounded=0;entryX=1;entryY=0.79;entryDx=0;entryDy=0;entryPerimeter=0;exitX=0.069;exitY=0.31;exitDx=0;exitDy=0;exitPerimeter=0;" edge="1" parent="1" source="BBZVALFFSFmiyquu_aXk-12" target="BBZVALFFSFmiyquu_aXk-13">
          <mxGeometry width="50" height="50" relative="1" as="geometry">
            <mxPoint x="390" y="240" as="sourcePoint" />
            <mxPoint x="440" y="190" as="targetPoint" />
          </mxGeometry>
        </mxCell>
        <mxCell id="BBZVALFFSFmiyquu_aXk-26" value="" style="endArrow=classic;html=1;rounded=0;" edge="1" parent="1" source="BBZVALFFSFmiyquu_aXk-13" target="BBZVALFFSFmiyquu_aXk-1">
          <mxGeometry width="50" height="50" relative="1" as="geometry">
            <mxPoint x="390" y="240" as="sourcePoint" />
            <mxPoint x="440" y="190" as="targetPoint" />
          </mxGeometry>
        </mxCell>
        <mxCell id="BBZVALFFSFmiyquu_aXk-27" value="" style="endArrow=none;html=1;rounded=0;exitX=0.5;exitY=0.5;exitDx=0;exitDy=0;exitPerimeter=0;entryX=-0.008;entryY=0.515;entryDx=0;entryDy=0;entryPerimeter=0;" edge="1" parent="1" source="BBZVALFFSFmiyquu_aXk-2" target="BBZVALFFSFmiyquu_aXk-5">
          <mxGeometry width="50" height="50" relative="1" as="geometry">
            <mxPoint x="390" y="260" as="sourcePoint" />
            <mxPoint x="440" y="210" as="targetPoint" />
          </mxGeometry>
        </mxCell>
        <mxCell id="BBZVALFFSFmiyquu_aXk-29" value="" style="endArrow=none;html=1;rounded=0;exitX=1.024;exitY=0.525;exitDx=0;exitDy=0;exitPerimeter=0;entryX=0;entryY=0.57;entryDx=0;entryDy=0;entryPerimeter=0;" edge="1" parent="1" source="BBZVALFFSFmiyquu_aXk-5" target="BBZVALFFSFmiyquu_aXk-12">
          <mxGeometry width="50" height="50" relative="1" as="geometry">
            <mxPoint x="390" y="240" as="sourcePoint" />
            <mxPoint x="380" y="230" as="targetPoint" />
          </mxGeometry>
        </mxCell>
      </root>
    </mxGraphModel>
  </diagram>
</mxfile>
